<svg width="24" height="24" viewBox="0 0 24 24" fill="none"
    xmlns="http://www.w3.org/2000/svg">
    <path d="M13.8 9.3V5.7C13.8 4.20883 12.5912 3 11.1 3L7.5 11.1V21H17.958C18.8556 21.0102 19.6234 20.3574 19.758 19.47L21 11.37C21.0793 10.8478 20.9252 10.3173 20.5786 9.91875C20.2321 9.52025 19.7281 9.294 19.2 9.3H13.8Z" stroke="url(#paint0_linear_39_681)" stroke-width="2" stroke-linejoin="round"/>
    <path d="M7.5 11.0001H5.097C4.04266 10.9814 3.14135 11.8548 3 12.8998V19.1998C3.14135 20.2448 4.04266 21.0184 5.097 20.9998H7.5V11.0001Z" fill="url(#paint1_linear_39_681)" stroke="url(#paint2_linear_39_681)" stroke-width="2" stroke-linejoin="round"/>
    <defs>
        <linearGradient id="paint0_linear_39_681" x1="7.96978" y1="4.19566" x2="21.623" y2="10.191" gradientUnits="userSpaceOnUse">
            <stop stop-color="#6936F5"/>
            <stop offset="1" stop-color="#68DBE0"/>
        </linearGradient>
        <linearGradient id="paint1_linear_39_681" x1="3.15636" y1="11.6641" x2="8.22597" y2="12.9977" gradientUnits="userSpaceOnUse">
            <stop stop-color="#6936F5"/>
            <stop offset="1" stop-color="#68DBE0"/>
        </linearGradient>
        <linearGradient id="paint2_linear_39_681" x1="3.15636" y1="11.6641" x2="8.22597" y2="12.9977" gradientUnits="userSpaceOnUse">
            <stop stop-color="#6936F5"/>
            <stop offset="1" stop-color="#68DBE0"/>
        </linearGradient>
    </defs>
</svg>