<svg width="1438" height="281" viewBox="0 0 1438 281" fill="none"
    xmlns="http://www.w3.org/2000/svg">
    <path d="M1 280L22.7576 267.461C44.5152 254.922 88.0303 229.843 131.545 211.042C175.061 192.24 218.576 179.715 262.091 203.274C305.606 226.832 349.121 286.474 392.636 278.931C436.152 271.388 479.667 196.66 523.182 177.12C566.697 157.58 610.212 193.226 653.727 201.217C697.242 209.207 740.758 189.541 784.273 174.995C827.788 160.448 871.303 151.02 914.818 162.554C958.333 174.087 1001.85 206.583 1045.36 202.787C1088.88 198.991 1132.39 158.904 1175.91 109.664C1219.42 60.4238 1262.94 2.03115 1306.45 1.01359C1349.97 -0.00395535 1393.48 56.3536 1415.24 84.5324L1437 112.711" stroke="#18A0FB" stroke-opacity="0.6"/>
</svg>