<svg width="1438" height="304" viewBox="0 0 1438 304" fill="none"
    xmlns="http://www.w3.org/2000/svg">
    <path d="M1 299.679L22.7576 301.107C44.5152 302.534 88.0303 305.389 131.545 299.063C175.061 292.738 218.576 277.232 262.091 263.471C305.606 249.709 349.121 237.692 392.636 220.898C436.152 204.105 479.667 182.534 523.182 182.574C566.697 182.614 610.212 204.263 653.727 191.881C697.242 179.498 740.758 133.083 784.273 128.473C827.788 123.863 871.303 161.059 914.818 156.595C958.333 152.132 1001.85 106.01 1045.36 82.4105C1088.88 58.8112 1132.39 57.7346 1175.91 71.2666C1219.42 84.7986 1262.94 112.939 1306.45 103.663C1349.97 94.3867 1393.48 47.6933 1415.24 24.3467L1437 1" stroke="#18A0FB" stroke-opacity="0.6"/>
</svg>