<svg width="500" height="106" viewBox="0 0 500 106" fill="none"
    xmlns="http://www.w3.org/2000/svg">
    <path d="M1 103.856L8.54545 104.348C16.0909 104.84 31.1818 105.823 46.2727 103.644C61.3636 101.466 76.4545 96.1263 91.5455 91.3872C106.636 86.6482 121.727 82.5098 136.818 76.7266C151.909 70.9433 167 63.5151 182.091 63.5288C197.182 63.5425 212.273 70.998 227.364 66.7338C242.455 62.4695 257.545 46.4856 272.636 44.8981C287.727 43.3106 302.818 56.1195 317.909 54.5824C333 53.0454 348.091 37.1623 363.182 29.0354C378.273 20.9085 393.364 20.5377 408.455 25.1978C423.545 29.8578 438.636 39.5486 453.727 36.3541C468.818 33.1596 483.909 17.0798 491.455 9.03991L499 1" stroke="white"/>
</svg> 